<svg width="532" height="713" viewBox="0 0 532 713" fill="none" xmlns="http://www.w3.org/2000/svg">
<path d="M322 69L271 134" stroke="#D6B064" stroke-width="8"/>
<path d="M89 488L82.5 581L51.5 622.5L4 660.5V680.5L56 686H103.5L94 660.5L170 628L206.5 581" stroke="#D6B064" stroke-width="8"/>
<path d="M379 231L392 193.5M392 193.5V173M392 193.5L404 179.5H423.5M423.5 179.5L396.5 160L373 141.5L358.5 117M423.5 179.5L470.5 168L499 149.5H516L526 121H493.5L499 92.5H516L526 58.5" stroke="#D6B064" stroke-width="8"/>
<path d="M528.5 57.5L496 51L480.5 27.5L450.5 5L418 18L407.5 5H389.5L377 18L383.5 37.5L323.5 67.5L255.5 84.5L196 128.5L156 159.5L120.5 211.5L106 251V338L80 383.5L68.5 435.5L88 485L137.5 543.5L182 571L230 590.5L261 612.5L266.5 674.5L278 708.5H340.5L366.5 700.5L356 682.5L351 656.5L377 628L383.5 550L396.5 479.5V383.5M396.5 383.5L348 379.5L310.5 357.5L286 330.5M396.5 383.5L418 365L439 349.5L466.5 338L489.5 330.5V298L475.5 285H439H407.5L401 266.5M286 330.5V257M286 330.5L255.5 266.5L240 257M401 266.5L377 285M401 266.5L377 232.5L401 227.5L409 232.5V262.5L401 266.5Z" stroke="#D6B064" stroke-width="8"/>
<path d="M93.5 659L68 614.685L118.921 622.487M136.465 551.253L160 628.781L118.921 622.487M136.465 551.253L118.921 622.487M136.465 551.253L86.8279 514M118.921 622.487L83 576.5" stroke="#D6B064" stroke-width="8"/>
<path d="M274 690.5L353.5 654.5M353.5 654.5L263.5 614.5M353.5 654.5L351 653.389L263.5 614.5M353.5 654.5V652M263.5 614.5L228.448 590.5L230.5 524.5M263.5 614.5L353.5 652M230.5 524.5L353.5 652M230.5 524.5L141 542.5L166 436M230.5 524.5L166 436M230.5 524.5L387.5 482L353.5 467.045M166 436H68.5L80.5 383L108 339.5L139.254 391.5M166 436L139.254 391.5M168.004 438.75L304.5 365.5L270.25 438.75M230.5 518.5L270.25 438.75M270.25 438.75L353.5 467.045M397.5 383L353.5 467.045M397.5 383L348 379L288.5 174.5L285.5 246.489V329.5M397.5 383L407.5 285L439.5 349M353.5 467.045L344 376.5M259 268.5L230.5 293.803M139.254 391.5L230.5 293.803M108 285L230.5 293.803M230.5 293.803L166 246.489M122.5 212L166 246.489M166 246.489L231.242 291.5" stroke="#D6B064" stroke-width="8"/>
<path d="M154 163.276L289 177L250.283 85" stroke="#D6B064" stroke-width="8"/>
<path d="M362 120L326 304" stroke="#D6B064" stroke-width="8"/>
<path d="M373.5 142L326.5 64.5L460.5 161.5L430.751 77.2774M430.751 77.2774L447.556 5M430.751 77.2774L379.856 36.5915M430.751 77.2774L332 63" stroke="#D6B064" stroke-width="8"/>
<path d="M460.435 56.3663L468.698 61.4221L461.142 61.9609L451 55.7561L460.435 56.3663Z" stroke="#D6B064" stroke-width="10.2934"/>
</svg>
