<svg width="605" height="575" viewBox="0 0 605 575" fill="none" xmlns="http://www.w3.org/2000/svg">
<path d="M208.671 379.315L232.191 362.3L313.759 441.367L350.791 450.875L387.822 441.367L452.877 404.836L501.918 459.883V490.408L518.932 533.945L495.413 568.975H574.479L593.996 552.461L599 464.387L574.479 389.323L578.483 342.784L574.479 293.743L550.459 241.198L514.429 210.172L468.39 193.658H444.87L381.817 227.687L362.801 234.693L345.286 227.687L201.165 99.5789L140.613 15.508L120.096 6L99.0785 15.508L34.0236 73.0565V87.5688L17.0093 103.582L30.0203 155.126H23.5148L6 193.658L41.53 252.208H57.043L101.581 227.687L92.0726 293.743L30.0203 464.387L73.0565 568.975H154.625L173.141 537.448L148.62 521.935L145.618 510.926L221.682 404.836L208.671 379.315Z" stroke="#D6B064" stroke-width="10.2934"/>
<path d="M66.8089 138.851L56.0064 140.975L61.9153 134.713L75.1729 132.106L66.8089 138.851Z" stroke="#D6B064" stroke-width="10.2934"/>
<path d="M120.5 164.5V9.5L183 191M120.5 164.5L39.5 72M120.5 164.5L33 155M120.5 164.5L100 230M120.5 164.5L183 191M183 191L219 292.5M183 191L180.845 193.5M219 292.5L231 365M219 292.5L138 365M219 292.5H95.5M219 292.5L241.5 140M219 292.5L331.5 297.5M231 365L331.5 297.5M231 365L387 338M138 365L44 435.5L107.5 468M138 365L107.5 468M138 365L140.245 365.456M107.5 468L81.5 568M107.5 468L144 508.5M107.5 468L207 379L140.245 365.456M140.245 365.456L95.5 292.5M95.5 292.5L180.845 193.5M241.5 140L180.845 193.5M241.5 140L331.5 297.5M331.5 297.5L361 236H370L485 297.5L387 338M331.5 297.5L387 338M387 338L312.5 435.5M505.5 209.5L487.5 297.5L486.717 300M575 386.5L453.5 406L486.717 300M575 386.5L486.717 300M575 386.5L501.5 458L557 487M575 386.5L557 487M557 487L520 531L564.5 568M557 487L591.5 552M557 487L599 468" stroke="#D6B064" stroke-width="8"/>
</svg>
