<svg width="229" height="45" viewBox="0 0 229 45" fill="none" xmlns="http://www.w3.org/2000/svg">
<g filter="url(#filter0_d)">
<path opacity="0.9" d="M158.954 9.00793V34H167.393C173.804 34 176.014 30.4504 176.014 26.8284C176.014 23.641 174.239 21.5402 171.088 20.9607C173.514 20.3811 175.217 17.9906 175.217 15.3827C175.217 11.2174 172.428 9.00793 166.596 9.00793H158.954ZM162.069 22.4457H166.814C170.943 22.4457 172.899 23.8221 172.899 26.8284C172.899 29.5449 171.16 31.1748 167.393 31.1748H162.069V22.4457ZM162.069 11.7969H166.596C170.979 11.7969 172.102 13.1733 172.102 15.3827C172.102 17.8457 170.653 19.6205 167.14 19.6205H162.069V11.7969ZM180.711 9.00793L189.767 34H192.7L201.755 9.00793H198.315L191.179 28.9291L184.152 9.00793H180.711ZM215.621 21.4315V24.2567H221.562C221.236 29.4362 219.026 31.4646 215.513 31.4646C211.673 31.4646 209.573 29.074 209.573 22.8803V20.1276C209.573 13.9339 211.673 11.5434 215.513 11.5434C218.7 11.5434 220.656 13.0646 221.453 16.7953H224.495C223.699 11.2898 220.366 8.71816 215.513 8.71816C209.971 8.71816 206.458 12.0504 206.458 20.1276V22.8803C206.458 30.9575 209.971 34.2898 215.513 34.2898C221.054 34.2898 224.713 30.9575 224.713 22.8803V21.4315H215.621Z" fill="#D6B064"/>
<path d="M9.47032 34.2021C11.916 34.2021 13.9807 33.9398 15.442 33.4494C16.8745 32.9991 18.3193 32.138 19.7265 30.8939C22.4652 28.4678 23.7966 25.386 23.7966 21.4702C23.7966 17.5797 22.5184 14.5198 19.8904 12.1156C18.6933 11.021 17.2887 10.2307 15.5963 9.70348C14.183 9.22089 12.3049 9.12646 9.53746 9.12646H4V34.2021H9.47032ZM7.51028 12.6463V12.2091H9.76939C13.2361 12.2091 15.7393 12.9662 17.4247 14.5224C19.376 16.3418 20.3238 18.6114 20.3238 21.4623C20.3238 24.3378 19.3368 26.6992 17.3898 28.4809C16.3671 29.4094 15.2877 30.0686 14.183 30.441C12.996 30.819 11.765 31.0406 10.521 31.1002C10.2716 31.1125 10.0231 31.1282 9.77026 31.1282H7.51028V12.6463Z" fill="#333333"/>
<path d="M33.0346 9.12646H30.395V34.2021H33.0346V9.12646Z" fill="#333333"/>
<path d="M81.8663 34.2021V31.1225H74.6868V9.12646H71.3081V34.2021H81.8663Z" fill="#333333"/>
<path d="M101.663 34.2021V31.1225H91.8711V23.7203V23.2806H101.663V20.201H91.8711V12.6458V12.2061H101.663V9.12646H88.4653V34.2021H101.663Z" fill="#333333"/>
<path d="M108.262 34.2021H111.935L117.602 24.6521L123.108 34.2021H126.739L119.5 21.604L126.384 9.12646H122.665L117.658 18.5978L112.893 9.12646H109.2L115.777 21.6083L108.262 34.2021Z" fill="#333333"/>
<path d="M40.9536 34.2021H44.465L52.9897 16.6836L60.9867 34.2021H64.7095L53.0451 9.12646L40.9536 34.2021Z" fill="#333333"/>
<path d="M130.698 34.2021H134.209L142.734 16.6836L150.731 34.2021H154.454L142.789 9.12646L130.698 34.2021Z" fill="#333333"/>
</g>
<defs>
<filter id="filter0_d" x="0" y="8.71826" width="228.713" height="33.5716" filterUnits="userSpaceOnUse" color-interpolation-filters="sRGB">
<feFlood flood-opacity="0" result="BackgroundImageFix"/>
<feColorMatrix in="SourceAlpha" type="matrix" values="0 0 0 0 0 0 0 0 0 0 0 0 0 0 0 0 0 0 127 0" result="hardAlpha"/>
<feOffset dy="4"/>
<feGaussianBlur stdDeviation="2"/>
<feComposite in2="hardAlpha" operator="out"/>
<feColorMatrix type="matrix" values="0 0 0 0 0 0 0 0 0 0 0 0 0 0 0 0 0 0 0.25 0"/>
<feBlend mode="normal" in2="BackgroundImageFix" result="effect1_dropShadow"/>
<feBlend mode="normal" in="SourceGraphic" in2="effect1_dropShadow" result="shape"/>
</filter>
</defs>
</svg>
