<svg width="225" height="45" viewBox="0 0 225 45" fill="none" xmlns="http://www.w3.org/2000/svg">
<path opacity="0.9" d="M155.891 9.00793V34H164.331C170.742 34 172.951 30.4504 172.951 26.8284C172.951 23.641 171.176 21.5402 168.025 20.9607C170.452 20.3811 172.154 17.9906 172.154 15.3827C172.154 11.2174 169.365 9.00793 163.534 9.00793H155.891ZM159.006 22.4457H163.751C167.88 22.4457 169.836 23.8221 169.836 26.8284C169.836 29.5449 168.098 31.1748 164.331 31.1748H159.006V22.4457ZM159.006 11.7969H163.534C167.916 11.7969 169.039 13.1733 169.039 15.3827C169.039 17.8457 167.59 19.6205 164.077 19.6205H159.006V11.7969ZM177.649 9.00793L186.704 34H189.638L198.693 9.00793H195.252L188.117 28.9291L181.09 9.00793H177.649ZM212.559 21.4315V24.2567H218.499C218.173 29.4362 215.964 31.4646 212.45 31.4646C208.611 31.4646 206.51 29.074 206.51 22.8803V20.1276C206.51 13.9339 208.611 11.5434 212.45 11.5434C215.638 11.5434 217.594 13.0646 218.39 16.7953H221.433C220.636 11.2898 217.304 8.71816 212.45 8.71816C206.909 8.71816 203.395 12.0504 203.395 20.1276V22.8803C203.395 30.9575 206.909 34.2898 212.45 34.2898C217.992 34.2898 221.65 30.9575 221.65 22.8803V21.4315H212.559Z" fill="#D6B064"/>
<path d="M6.40782 34.2021C8.85351 34.2021 10.9182 33.9398 12.3795 33.4494C13.812 32.9991 15.2568 32.138 16.664 30.8939C19.4027 28.4678 20.7341 25.386 20.7341 21.4702C20.7341 17.5797 19.4559 14.5198 16.8279 12.1156C15.6308 11.021 14.2262 10.2307 12.5338 9.70348C11.1205 9.22089 9.24238 9.12646 6.47496 9.12646H0.9375V34.2021H6.40782ZM4.44778 12.6463V12.2091H6.70689C10.1736 12.2091 12.6768 12.9662 14.3622 14.5224C16.3135 16.3418 17.2613 18.6114 17.2613 21.4623C17.2613 24.3378 16.2743 26.6992 14.3273 28.4809C13.3046 29.4094 12.2252 30.0686 11.1205 30.441C9.93345 30.819 8.70247 31.0406 7.45847 31.1002C7.2091 31.1125 6.96061 31.1282 6.70776 31.1282H4.44778V12.6463Z" fill="#333333"/>
<path d="M29.9721 9.12646H27.3325V34.2021H29.9721V9.12646Z" fill="#333333"/>
<path d="M78.8038 34.2021V31.1225H71.6243V9.12646H68.2456V34.2021H78.8038Z" fill="#333333"/>
<path d="M98.6005 34.2021V31.1225H88.8086V23.7203V23.2806H98.6005V20.201H88.8086V12.6458V12.2061H98.6005V9.12646H85.4028V34.2021H98.6005Z" fill="#333333"/>
<path d="M105.199 34.2021H108.873L114.539 24.6521L120.045 34.2021H123.676L116.438 21.604L123.322 9.12646H119.603L114.595 18.5978L109.83 9.12646H106.138L112.715 21.6083L105.199 34.2021Z" fill="#333333"/>
<path d="M37.8911 34.2021H41.4025L49.9272 16.6836L57.9242 34.2021H61.647L49.9826 9.12646L37.8911 34.2021Z" fill="#333333"/>
<path d="M127.635 34.2021H131.147L139.671 16.6836L147.668 34.2021H151.391L139.727 9.12646L127.635 34.2021Z" fill="#333333"/>
</svg>
